<?xml version="1.0" encoding="UTF-8"?>
<svg version="1.1" xmlns="http://www.w3.org/2000/svg" width="1024" height="1024">
<path d="M0 0 C337.92 0 675.84 0 1024 0 C1024 337.92 1024 675.84 1024 1024 C686.08 1024 348.16 1024 0 1024 C0 686.08 0 348.16 0 0 Z " fill="#FEFEFE" transform="translate(0,0)"/>
<path d="M0 0 C1.27603592 -0.00274933 2.55207184 -0.00549866 3.86677551 -0.0083313 C5.27847384 -0.00125345 6.69017122 0.00601616 8.10186768 0.01345825 C9.59012342 0.01402247 11.07837971 0.0137056 12.56663513 0.01257324 C16.6055744 0.01199913 20.64439501 0.02376288 24.68330669 0.03772116 C28.90470975 0.05021878 33.12611548 0.05139825 37.34753418 0.05377197 C45.34081104 0.05998959 53.33403323 0.07640422 61.32728601 0.09647095 C70.4275607 0.11882119 79.52783799 0.12982118 88.6281333 0.13986182 C107.3475992 0.1607702 126.0670142 0.19595165 144.78643799 0.24050903 C144.78786301 0.98695679 144.78928802 1.73340454 144.79075623 2.50247192 C144.80864375 9.5640521 144.85042622 16.62500254 144.91852856 23.68624878 C144.9527061 27.31590917 144.97789394 30.94515282 144.98199463 34.57498169 C144.98629776 38.08319477 145.01492362 41.59046927 145.05986977 45.09838867 C145.07903126 47.07674193 145.07350697 49.05528503 145.06748962 51.03372192 C145.18432929 58.2943741 145.72698306 63.74882807 150.78643799 69.24050903 C155.76597252 73.12454597 159.40285606 74.3543768 165.63482666 74.4458313 C166.83584518 74.46577652 168.03686371 74.48572174 169.27427673 74.50627136 C170.57121964 74.52298386 171.86816254 74.53969635 173.20440674 74.55691528 C174.54534028 74.57749196 175.88626745 74.59848863 177.22718811 74.61988831 C180.75345688 74.6750353 184.27978347 74.72447698 187.80615234 74.7727356 C191.40575292 74.82300453 195.00526972 74.87866243 198.60479736 74.93386841 C205.6652715 75.04135975 212.72582081 75.14282468 219.78643799 75.24050903 C219.92659525 104.0474752 220.032403 132.85439027 220.09731102 161.66162872 C220.10347 164.32431561 220.10967801 166.98700229 220.11602783 169.64968872 C220.11760169 170.31150672 220.11917556 170.97332471 220.12079711 171.6551978 C220.14526928 181.69967936 220.18752718 191.74398404 220.23907471 201.7883606 C220.29887502 213.44640351 220.33758688 225.104293 220.35096896 236.76248503 C220.3587915 242.93557445 220.37717796 249.10822495 220.42081833 255.28117371 C220.46156867 261.09245487 220.47410179 266.90311665 220.46508408 272.71452713 C220.4667336 274.84622693 220.47865362 276.97794761 220.50167084 279.10952377 C220.53159542 282.02393804 220.52432313 284.93602448 220.50796509 287.85049438 C220.52544214 288.69098217 220.54291919 289.53146996 220.56092584 290.39742708 C220.47845703 295.84580178 219.19883228 299.52594932 215.65097964 303.72363663 C212.26686665 306.47673555 208.9720466 306.33348235 204.75323486 306.22946167 C203.85396019 306.23911933 202.95468552 306.24877699 202.0281601 306.25872731 C199.01931486 306.28124517 196.01387959 306.24666261 193.00518799 306.21218872 C190.8465686 306.21648122 188.68795373 306.22423779 186.52935791 306.23519897 C180.66953774 306.25458706 174.81093623 306.2239799 168.95126343 306.1833868 C162.82016386 306.14825005 156.68910209 306.15529488 150.55792236 306.15682983 C140.26149099 306.15308366 129.96553115 306.11835495 119.66925049 306.06375122 C107.76419962 306.00084916 95.85966519 305.97975882 83.95446014 305.98269343 C72.50360445 305.98513489 61.05291697 305.96471014 49.60211182 305.93152618 C44.72823779 305.91740252 39.85442328 305.9100743 34.98052979 305.90795135 C29.24137476 305.90393295 23.50265328 305.87950928 17.76364136 305.8392868 C15.65695857 305.82760424 13.55022587 305.82268183 11.44351196 305.82499695 C8.56842763 305.82696082 5.69455635 305.80433138 2.81964111 305.77536011 C1.98520226 305.78155452 1.1507634 305.78774892 0.29103851 305.79413104 C-4.98390087 305.70629779 -8.08990856 304.82357108 -12.21356201 301.24050903 C-16.45389461 296.5848287 -15.63668753 290.68520943 -15.60797119 284.74601746 C-15.61406229 283.56991565 -15.6201534 282.39381384 -15.62642908 281.18207258 C-15.64019835 277.92119802 -15.6405102 274.66064313 -15.63505411 271.39975417 C-15.63238428 267.88160015 -15.64691475 264.36351063 -15.65914917 260.84538269 C-15.6802069 253.95453146 -15.68474385 247.06376437 -15.68296129 240.17288477 C-15.68165391 234.57235811 -15.68545652 228.9718577 -15.69288635 223.37133598 C-15.69498553 221.75842315 -15.69708313 220.14551032 -15.69917917 218.53259748 C-15.7002227 217.72982153 -15.70126623 216.92704559 -15.70234138 216.09994309 C-15.72124488 200.91640593 -15.72019312 185.73291708 -15.71337205 170.54937302 C-15.70779559 156.65710312 -15.72862616 142.76501758 -15.76173252 128.87279076 C-15.79545932 114.60957107 -15.81063918 100.34643973 -15.80601549 86.08317941 C-15.80376989 78.07488107 -15.80902723 70.06675315 -15.83390808 62.05848885 C-15.85490813 55.24125868 -15.8585262 48.4242924 -15.83960849 41.60705144 C-15.83044269 38.12871393 -15.8293325 34.65086861 -15.84996414 31.17256927 C-15.86805908 27.40192106 -15.85547754 23.63259153 -15.83502197 19.86198425 C-15.84753982 18.76227879 -15.86005767 17.66257333 -15.87295485 16.52954346 C-15.77664114 8.27249616 -15.77664114 8.27249616 -12.92472076 4.63916683 C-8.45700065 0.68641723 -5.97113945 -0.00991884 0 0 Z " fill="#FE7201" transform="translate(356.21356201171875,226.75949096679688)"/>
<path d="M0 0 C5.42494712 1.62748414 10.69369684 3.21038965 16.00341797 5.09204102 C39.74997681 13.40080259 64.15455268 16.89197242 89 20 C89.64013673 23.03909575 90.26174026 26.08044812 90.875 29.125 C91.13603516 30.35089844 91.13603516 30.35089844 91.40234375 31.6015625 C95.07291863 50.09038414 95.32569296 68.91356949 95.26074219 87.69433594 C95.25003181 91.36410106 95.26070211 95.03337466 95.2734375 98.703125 C95.28598348 118.14760484 94.76613949 137.75930501 90.875 156.875 C90.66544678 157.93251465 90.45589355 158.9900293 90.23999023 160.07958984 C87.6942481 172.30961282 83.99789526 184.17621965 80 196 C79.7304248 196.80179688 79.46084961 197.60359375 79.18310547 198.4296875 C75.88302111 208.09560233 71.67402296 217.20475511 66.92871094 226.23242188 C66.11048903 227.78971069 65.30790789 229.35519606 64.5078125 230.921875 C44.95718036 268.2558505 12.71888355 298.36210283 -23 320 C-23.62487305 320.37930664 -24.24974609 320.75861328 -24.89355469 321.14941406 C-37.43717884 328.6702875 -50.70198267 334.94091354 -64 341 C-64.90266602 341.42200684 -65.80533203 341.84401367 -66.73535156 342.27880859 C-72.76244949 344.93487574 -76.63148789 345.59125016 -83.01074219 343.26757812 C-85.33410136 342.32819202 -87.60219584 341.30581188 -89.875 340.25 C-90.73359619 339.85514404 -91.59219238 339.46028809 -92.47680664 339.0534668 C-120.4522609 326.01488459 -146.71692577 310.72708357 -169.30078125 289.51171875 C-171.48804586 287.47639148 -173.70817803 285.53878948 -176 283.625 C-190.12151308 271.27959475 -202.79719113 255.33080264 -212 239 C-212 238.67 -212 238.34 -212 238 C-179.78419491 235.57093524 -179.78419491 235.57093524 -173.609375 240.765625 C-171.18158012 243.61649943 -169.49203043 246.79630864 -167.92285156 250.18310547 C-166.49034033 253.00340933 -164.46348931 255.14098171 -162.3125 257.4375 C-161.58546875 258.22898437 -160.8584375 259.02046875 -160.109375 259.8359375 C-157.54606232 262.46570643 -154.8692582 264.8846973 -152.05859375 267.24609375 C-150.64368016 268.45158939 -149.26189086 269.69671984 -147.91015625 270.97265625 C-129.74983248 288.07750821 -107.47227304 300.53852263 -85.25 311.5625 C-84.49468994 311.95083008 -83.73937988 312.33916016 -82.96118164 312.73925781 C-79.67016619 314.30472196 -77.79503453 315.13486222 -74.14453125 314.515625 C-73.10683594 314.01546875 -72.06914063 313.5153125 -71 313 C-70.24734863 312.66991943 -69.49469727 312.33983887 -68.71923828 311.99975586 C-49.53504053 303.5505607 -31.36567148 293.14138994 -15 280 C-14.09507812 279.28585937 -13.19015625 278.57171875 -12.2578125 277.8359375 C8.09732442 261.51723 25.00495162 242.68673363 38 220 C38.65484375 218.87722656 39.3096875 217.75445313 39.984375 216.59765625 C50.17120137 198.66637231 55.94290133 178.88450554 61 159 C61.26578857 157.9682666 61.53157715 156.9365332 61.80541992 155.87353516 C63.80073112 147.7501654 64.93355773 139.70092044 65.6875 131.375 C65.75037201 130.68712402 65.81324402 129.99924805 65.87802124 129.29052734 C68.35455603 101.37423291 68.07930495 72.85121354 65 45 C64.28166992 44.9575415 63.56333984 44.91508301 62.82324219 44.87133789 C55.12462779 44.33412416 47.77311838 43.13476522 40.25 41.4375 C39.09636963 41.18009033 37.94273926 40.92268066 36.75415039 40.6574707 C24.52896907 37.82408454 11.28577382 34.64288691 0 29 C0 19.43 0 9.86 0 0 Z " fill="#091D37" transform="translate(588,305)"/>
<path d="M0 0 C8.56310188 6.1121246 13.96497309 13.95965519 16.25 24.25 C17.12435988 38.58376855 16.35462478 50.74233726 6.50390625 62.0625 C-2.19984949 70.50981927 -14.0172446 74.41840077 -26 74.625 C-39.72514719 74.15433677 -49.94202291 70.09254437 -59.546875 60.01953125 C-68.06024268 49.31744315 -68.76959979 37.34921801 -67.75 24.25 C-65.58094155 13.40470775 -59.17948789 5.54982226 -50.484375 -0.984375 C-35.39905096 -10.72518423 -14.86475168 -9.08263625 0 0 Z " fill="#0B1E37" transform="translate(698.75,722.75)"/>
<path d="M0 0 C8.42966004 5.86616268 13.45389688 12.95606186 16.78125 22.64453125 C16.78125 28.58453125 16.78125 34.52453125 16.78125 40.64453125 C-3.67875 40.64453125 -24.13875 40.64453125 -45.21875 40.64453125 C-39.64760093 51.97048582 -39.64760093 51.97048582 -29.38671875 58.13671875 C-20.31526853 60.26156294 -11.46698115 58.76176183 -3.21875 54.64453125 C-1.85911624 53.68059463 -0.51638845 52.69043384 0.78125 51.64453125 C3.88567031 53.03498115 6.1468943 54.66024723 8.59375 57.01953125 C9.53154297 57.89738281 9.53154297 57.89738281 10.48828125 58.79296875 C11.78125 60.64453125 11.78125 60.64453125 11.6953125 62.68359375 C8.86839573 68.74817588 1.06340691 71.73757238 -4.86328125 73.8984375 C-17.72272242 77.97166016 -31.8704868 76.48277632 -43.78125 70.58203125 C-53.79386665 64.91561459 -59.40644386 57.44333833 -63.21875 46.64453125 C-66.12235321 35.10456976 -64.75636665 22.36788393 -58.7109375 12.078125 C-45.26747184 -6.39882432 -19.81302538 -12.10408417 0 0 Z " fill="#0B1E36" transform="translate(465.21875,721.35546875)"/>
<path d="M0 0 C10.56976711 5.45241589 16.93581715 13.06212971 21.25 24.0625 C22.86892404 30.53819614 22.25 37.3875052 22.25 44.0625 C1.79 44.0625 -18.67 44.0625 -39.75 44.0625 C-34.9080744 53.7463512 -32.3216214 57.95873897 -22.75 62.0625 C-13.87746592 63.1567792 -5.59301981 62.52928652 2.25 58.0625 C2.93707031 57.50175781 3.62414062 56.94101562 4.33203125 56.36328125 C4.96496094 55.93402344 5.59789062 55.50476563 6.25 55.0625 C7.735 55.5575 7.735 55.5575 9.25 56.0625 C9.25 56.7225 9.25 57.3825 9.25 58.0625 C9.8275 58.289375 10.405 58.51625 11 58.75 C13.8163661 60.39288023 15.33077114 62.45783227 17.25 65.0625 C14.73087264 71.08762936 9.26165708 73.62291025 3.5859375 76.3359375 C-8.17349833 80.90365224 -22.47529644 80.72786285 -34.19140625 76.09765625 C-46.60113476 70.47064958 -52.66950075 62.34037318 -57.75 50.0625 C-60.77020258 41.31795997 -59.70275456 28.30322506 -55.75 20.0625 C-44.47625775 0.54465166 -21.60293796 -8.23912837 0 0 Z " fill="#0B1E36" transform="translate(844.75,717.9375)"/>
<path d="M0 0 C6.27 0 12.54 0 19 0 C19.33 21.12 19.66 42.24 20 64 C26.27 57.73 32.54 51.46 39 45 C41.64 42.69 44.28 40.38 47 38 C48.26845041 36.54715448 49.52322078 35.08195003 50.75 33.59375 C54.01285026 30.28620317 56.17682461 29.44604763 60.8125 29.21875 C62.87645982 29.27133496 64.93972903 29.36591478 67 29.5 C68.06089844 29.53609375 69.12179687 29.5721875 70.21484375 29.609375 C72.81372807 29.70302849 75.40490402 29.83397516 78 30 C76.20691005 33.86010998 73.91976852 36.31437835 70.875 39.3125 C70.38290039 39.79887939 69.89080078 40.28525879 69.38378906 40.78637695 C65.99138663 44.11201285 62.46479352 47.22974945 58.84765625 50.3046875 C56.16630917 52.764951 53.85972414 55.49976345 51.54296875 58.30078125 C50 60 50 60 47 62 C47.60861676 65.87879635 49.44731246 68.2313638 51.8125 71.3125 C52.20703369 71.8288501 52.60156738 72.3452002 53.00805664 72.87719727 C56.75566569 77.75277663 60.61152176 82.54332967 64.46362305 87.33642578 C67.88420294 91.59448633 71.27799144 95.87131149 74.625 100.1875 C75.81996094 101.72470703 75.81996094 101.72470703 77.0390625 103.29296875 C78.64705584 105.51276832 79.82477854 107.54786151 81 110 C62.15603766 112.51156233 62.15603766 112.51156233 55.828125 108.6875 C51.96353231 105.12018367 49.20954602 100.7874929 46.47363281 96.328125 C43.96475543 92.3644645 41.0467608 88.71404792 38.1875 85 C36.44917315 82.67330401 34.72467253 80.3368536 33 78 C28.21128098 79.08229967 25.40997417 81.09002583 21.9296875 84.5703125 C17.70840243 92.07292038 18.81773143 101.60835497 19 110 C12.73 110 6.46 110 0 110 C0 73.7 0 37.4 0 0 Z " fill="#0E2138" transform="translate(255,686)"/>
<path d="M0 0 C1.64488403 0.01377686 1.64488403 0.01377686 3.32299805 0.02783203 C11.04558582 0.20150256 17.57938355 1.00205867 24.5625 4.5 C25.31917969 4.87382813 26.07585938 5.24765625 26.85546875 5.6328125 C27.70044922 6.06207031 27.70044922 6.06207031 28.5625 6.5 C27.98142368 10.2602985 26.91050504 13.03035032 25 16.3125 C24.54496094 17.10269531 24.08992187 17.89289062 23.62109375 18.70703125 C23.09708984 19.59455078 23.09708984 19.59455078 22.5625 20.5 C20.79138156 20.02188823 19.02061517 19.5424722 17.25 19.0625 C16.26386719 18.79566406 15.27773438 18.52882813 14.26171875 18.25390625 C12.34732474 17.71920575 10.44816385 17.12855462 8.5625 16.5 C5.62979194 16.22646168 2.6941004 16.22280096 -0.25 16.1875 C-1.04470703 16.15849609 -1.83941406 16.12949219 -2.65820312 16.09960938 C-8.03487756 16.04179567 -11.26321176 16.77484404 -15.4375 20.5 C-16.3543022 24.04321553 -16.3543022 24.04321553 -15.4375 27.5 C-12.1128748 29.96670488 -9.08858034 31.00390613 -5.05078125 31.74609375 C-4.02919922 31.94396484 -3.00761719 32.14183594 -1.95507812 32.34570312 C0.16205584 32.73661817 2.27924238 33.1272486 4.39648438 33.51757812 C14.90275273 35.55296177 23.67231792 37.71799566 30.16796875 46.7265625 C31.89226986 50.15584482 31.96241809 52.61257271 31.9375 56.4375 C31.94910156 58.21447266 31.94910156 58.21447266 31.9609375 60.02734375 C31.1888325 66.75676872 27.97489302 70.69172524 22.94921875 74.890625 C11.40079345 82.67777921 -3.80916954 82.78445165 -17.15625 81.00390625 C-23.91600599 79.57952909 -30.72363713 77.50458765 -36.4375 73.5 C-37.4375 70.5 -37.4375 70.5 -36.22265625 67.58203125 C-35.36994141 65.96361328 -35.36994141 65.96361328 -34.5 64.3125 C-33.93410156 63.22582031 -33.36820312 62.13914062 -32.78515625 61.01953125 C-32.34042969 60.18808594 -31.89570313 59.35664062 -31.4375 58.5 C-26.38657807 59.61120283 -21.5987557 61.57683055 -16.75 63.34375 C-8.67626952 66.16193894 -0.27520041 67.11210787 7.75 63.5625 C10.34543209 62.29196188 10.34543209 62.29196188 12.5625 60.5 C12.71208506 57.04051214 12.71208506 57.04051214 11.5625 53.5 C5.284671 50.04130332 -1.52510338 49.25132525 -8.5234375 48.12695312 C-17.55431154 46.55836381 -26.310994 43.68909782 -32.4375 36.5 C-35.54390751 31.27106493 -36.34931415 25.47395477 -35.4375 19.5 C-33.45813382 12.80252197 -29.10617399 8.36784739 -23.4375 4.5 C-15.72106284 0.72647402 -8.50025683 -0.14710606 0 0 Z " fill="#0D1F37" transform="translate(529.4375,715.5)"/>
<path d="M0 0 C28.38 0 56.76 0 86 0 C86 5.28 86 10.56 86 16 C74.78 16 63.56 16 52 16 C52 45.04 52 74.08 52 104 C45.73 104 39.46 104 33 104 C33 74.96 33 45.92 33 16 C22.11 16 11.22 16 0 16 C0 10.72 0 5.44 0 0 Z " fill="#091D37" transform="translate(157,692)"/>
<path d="M0 0 C5.94 0 11.88 0 18 0 C18 6.27 18 12.54 18 19 C25.26 19 32.52 19 40 19 C40 23.95 40 28.9 40 34 C32.74 34 25.48 34 18 34 C18.07404766 39.89061888 18.15692078 45.7797326 18.26245117 51.66967773 C18.29566727 53.67252764 18.32370952 55.6754704 18.34643555 57.6784668 C18.38004234 60.56078594 18.43236148 63.44225668 18.48828125 66.32421875 C18.49467117 67.21711105 18.5010611 68.11000336 18.50764465 69.029953 C18.6201206 73.8058745 18.86101012 77.14228968 22 81 C26.62853285 83.31426642 32.81262778 82.32755096 37.625 81 C38.800625 80.505 38.800625 80.505 40 80 C40.70365602 81.5552912 41.38729378 83.11964827 42.0625 84.6875 C42.44535156 85.55761719 42.82820312 86.42773438 43.22265625 87.32421875 C44.11170354 90.38450715 44.08109157 92.01290812 43 95 C34.43766674 99.61048714 25.10017755 100.30870125 15.75 97.8125 C9.77838633 95.80012235 5.97699605 92.90438489 2.6875 87.4375 C0.59839017 83.18190589 -0.12646811 80.0343913 -0.11352539 75.32324219 C-0.11344986 74.40258972 -0.11337433 73.48193726 -0.11329651 72.53338623 C-0.10813522 71.54783752 -0.10297394 70.56228882 -0.09765625 69.546875 C-0.0962413 68.53151672 -0.09482635 67.51615845 -0.09336853 66.47003174 C-0.08777516 63.22999108 -0.07522385 59.99001975 -0.0625 56.75 C-0.05748414 54.55208433 -0.05292139 52.35416758 -0.04882812 50.15625 C-0.0378079 44.77080666 -0.02054778 39.38541508 0 34 C-4.29 34 -8.58 34 -13 34 C-13 29.05 -13 24.1 -13 19 C-8.71 19 -4.42 19 0 19 C0 12.73 0 6.46 0 0 Z " fill="#0A1E37" transform="translate(580,698)"/>
<path d="M0 0 C5.94 0 11.88 0 18 0 C18.33 3.3 18.66 6.6 19 10 C20.134375 8.906875 21.26875 7.81375 22.4375 6.6875 C29.73399019 0.35276159 36.57161627 -0.39838241 46 0 C46 5.61 46 11.22 46 17 C43.525 17.12375 43.525 17.12375 41 17.25 C34.3093826 17.86997999 29.41670291 19.5179808 24.6875 24.375 C20.35085829 31.1208871 19.53887371 35.97261047 19.48828125 43.8671875 C19.47033005 44.90191193 19.45237885 45.93663635 19.43388367 47.00271606 C19.37989031 50.29343647 19.34591958 53.58401271 19.3125 56.875 C19.27931731 59.11199918 19.24482677 61.34897936 19.20898438 63.5859375 C19.12416983 69.05718749 19.05730589 74.52839553 19 80 C12.73 80 6.46 80 0 80 C0 53.6 0 27.2 0 0 Z " fill="#0B1E36" transform="translate(732,716)"/>
<path d="M0 0 C7.09515446 5.79904189 13.46818621 12.32301832 19.93359375 18.80078125 C21.17897697 20.04549009 22.42450854 21.29005051 23.67018127 22.5344696 C26.26636699 25.12918795 28.8607523 27.7256894 31.45385742 30.32348633 C34.78518523 33.66054669 38.12103057 36.99304957 41.45820522 40.32426167 C44.02408603 42.88654126 46.58759567 45.45118243 49.15037727 48.01656151 C50.38049901 49.24735189 51.61136832 50.47739555 52.84298515 51.70668983 C54.5545667 53.41574826 56.2629381 55.12795036 57.97045898 56.84106445 C58.48310303 57.35168427 58.99574707 57.86230408 59.52392578 58.38839722 C63 61.8857302 63 61.8857302 63 63 C55.27713258 63.10151824 47.55443761 63.17151568 39.83105469 63.21972656 C37.20436167 63.23982715 34.57771331 63.26711204 31.95117188 63.30175781 C28.17306488 63.35034164 24.39555016 63.37298509 20.6171875 63.390625 C19.44509735 63.41127014 18.2730072 63.43191528 17.06539917 63.45318604 C10.75496682 63.45491816 6.72641682 63.37576312 2 59 C-0.25779693 55.6133046 -0.24486783 54.48309149 -0.22705078 50.51879883 C-0.22689972 49.39786331 -0.22674866 48.2769278 -0.22659302 47.12202454 C-0.21627045 45.91257675 -0.20594788 44.70312897 -0.1953125 43.45703125 C-0.1924826 42.21829758 -0.18965271 40.9795639 -0.18673706 39.70329285 C-0.17743186 36.41361913 -0.15946791 33.12414137 -0.1373291 29.83453369 C-0.1168527 26.47630206 -0.10773152 23.11804172 -0.09765625 19.75976562 C-0.07558271 13.17310027 -0.04209522 6.58656617 0 0 Z " fill="#FB7406" transform="translate(512,228)"/>
<path d="M0 0 C0 5.61 0 11.22 0 17 C-2.475 17.12375 -2.475 17.12375 -5 17.25 C-11.40111829 17.86628225 -16.32986715 19.10832774 -20.7890625 23.9375 C-24.28641011 28.44592915 -26.09676243 31.87034084 -26.20532227 37.6550293 C-26.22526749 38.59577805 -26.24521271 39.53652679 -26.26576233 40.50578308 C-26.29083107 42.02465874 -26.29083107 42.02465874 -26.31640625 43.57421875 C-26.33718735 44.61318802 -26.35796844 45.65215729 -26.37937927 46.72261047 C-26.44480656 50.04417253 -26.50372821 53.36581416 -26.5625 56.6875 C-26.60569169 58.9381593 -26.64930619 61.18881052 -26.69335938 63.43945312 C-26.80048103 68.95955369 -26.90176789 74.47973437 -27 80 C-33.27 80 -39.54 80 -46 80 C-46 53.93 -46 27.86 -46 1 C-40.06 1 -34.12 1 -28 1 C-27.67 3.97 -27.34 6.94 -27 10 C-26.52691406 9.52949219 -26.05382812 9.05898438 -25.56640625 8.57421875 C-17.57832904 1.05328056 -10.80838492 -0.45669232 0 0 Z " fill="#0C1F36" transform="translate(393,716)"/>
<path d="M0 0 C6.27022431 3.48017167 10.57623022 8.04242029 12.75 14.9375 C13.39396275 22.40579527 14.17271262 31.4735354 9.75 37.9375 C4.6250256 43.74580432 -0.99812953 47.26633444 -8.6953125 48.25 C-14.72130749 48.54484991 -19.36880684 47.55544441 -24.25 43.9375 C-29.95020374 38.65328746 -32.85336296 34.0040734 -33.62109375 26.1328125 C-34.01605572 12.93690814 -34.01605572 12.93690814 -29.734375 7.4765625 C-29.24453125 6.96867188 -28.7546875 6.46078125 -28.25 5.9375 C-27.78078125 5.45023438 -27.3115625 4.96296875 -26.828125 4.4609375 C-19.01418857 -2.72284276 -9.55190297 -4.35222045 0 0 Z " fill="#FBFCFC" transform="translate(683.25,733.0625)"/>
<path d="M0 0 C0.33 0 0.66 0 1 0 C1 95.7 1 191.4 1 290 C1.66 290 2.32 290 3 290 C4.76462683 293.08809695 5 294.23312136 5 298 C2.54194057 297.06763263 1.11608089 296.13399916 -0.61332989 294.13763618 C-2.74025072 289.32502523 -2.4089908 284.69048541 -2.3742218 279.48532104 C-2.37819621 278.30710254 -2.38217061 277.12888403 -2.38626546 275.91496193 C-2.3942251 272.64827674 -2.38872562 269.38193353 -2.37751496 266.11526799 C-2.36867291 262.59105446 -2.37711639 259.06687674 -2.38337708 255.54266357 C-2.39286651 248.64076849 -2.38626431 241.73897793 -2.37411413 234.8370906 C-2.3604972 226.80302234 -2.36213167 218.76897902 -2.36424746 210.73490216 C-2.36743746 196.40348751 -2.35576825 182.07212257 -2.33618164 167.74072266 C-2.31717032 153.82664476 -2.31009593 139.91262511 -2.31567383 125.99853516 C-2.32172762 110.85248249 -2.32156245 95.70645543 -2.310188 80.5604049 C-2.30898068 78.94638896 -2.30777469 77.33237302 -2.30657005 75.71835709 C-2.30596651 74.9241904 -2.30536298 74.13002372 -2.30474115 73.31179138 C-2.30085758 67.7081212 -2.30125729 62.10446053 -2.3031559 56.50078964 C-2.30527499 49.67585069 -2.30007534 42.85096282 -2.28554235 36.02603827 C-2.27828453 32.54215073 -2.27423313 29.05833769 -2.27878571 25.57444382 C-2.28198843 21.80311626 -2.27297394 18.03201586 -2.26069641 14.26071167 C-2.26447573 13.15226768 -2.26825506 12.0438237 -2.27214891 10.9017905 C-2.26340062 9.39262913 -2.26340062 9.39262913 -2.25447559 7.85297966 C-2.25360882 6.98195354 -2.25274204 6.11092743 -2.251849 5.21350658 C-2 3 -2 3 0 0 Z " fill="#F9710C" transform="translate(343,232)"/>
<path d="M0 0 C5.07098012 3.01775842 9.23319941 7.47082343 11.32421875 13.046875 C11.32421875 14.696875 11.32421875 16.346875 11.32421875 18.046875 C-3.19578125 18.046875 -17.71578125 18.046875 -32.67578125 18.046875 C-31.45990882 9.53576801 -29.13155539 6.05189599 -22.80078125 0.546875 C-16.50285546 -2.59504324 -6.51675905 -2.32129811 0 0 Z " fill="#F3F6F7" transform="translate(837.67578125,731.953125)"/>
<path d="M0 0 C7.3807936 4.51400467 9.38978016 8.99662065 11.5 17.4375 C-3.35 17.4375 -18.2 17.4375 -33.5 17.4375 C-30.95257453 5.97408537 -30.95257453 5.97408537 -24.4375 1.1875 C-17.5537874 -2.91343517 -7.35939517 -3.34388052 0 0 Z " fill="#F3F6F8" transform="translate(453.5,732.5625)"/>
<path d="M0 0 C1.91817787 -0.00824799 1.91817787 -0.00824799 3.87510681 -0.0166626 C5.27954482 -0.00250874 6.68397899 0.01203046 8.08840942 0.0269165 C9.57695993 0.02804559 11.06551267 0.02740993 12.55406189 0.02514648 C16.58476607 0.02400077 20.61499225 0.04748664 24.64558554 0.07544231 C28.86161965 0.10047989 33.07766522 0.10279982 37.29376221 0.10754395 C45.27288529 0.11996682 53.25178864 0.15277904 61.23081505 0.1929419 C70.31660274 0.2376811 79.40240102 0.25965205 88.48827147 0.27972364 C107.17430711 0.32151239 125.86004161 0.39485606 144.54592896 0.48101807 C144.54592896 19.29101807 144.54592896 38.10101807 144.54592896 57.48101807 C143.55592896 57.81101807 142.56592896 58.14101807 141.54592896 58.48101807 C141.54592896 40.33101807 141.54592896 22.18101807 141.54592896 3.48101807 C92.04592896 3.48101807 42.54592896 3.48101807 -8.45407104 3.48101807 C-8.45407104 4.14101807 -8.45407104 4.80101807 -8.45407104 5.48101807 C-9.77407104 5.15101807 -11.09407104 4.82101807 -12.45407104 4.48101807 C-8.13861893 1.20708339 -5.41233479 -0.0180111 0 0 Z " fill="#E5863B" transform="translate(356.4540710449219,226.51898193359375)"/>
<path d="M0 0 C1.32 0 2.64 0 4 0 C4 0.66 4 1.32 4 2 C25.12 2 46.24 2 68 2 C68.0450961 30.64989734 68.08195954 59.29976608 68.10362434 87.94968987 C68.11394975 101.25146968 68.12803414 114.55321691 68.15087891 127.85498047 C68.17077418 139.44484476 68.18370723 151.03469198 68.18817699 162.62457287 C68.19079093 168.76488235 68.19696092 174.90514299 68.21146011 181.04543686 C68.22498307 186.81879855 68.22923341 192.59209105 68.22621536 198.36546707 C68.2267679 200.48998134 68.23077668 202.61449779 68.23841095 204.73899841 C68.24828955 207.62856546 68.24599498 210.51786764 68.24050903 213.40744019 C68.24924756 214.6827146 68.24924756 214.6827146 68.25816262 215.98375213 C68.22824242 221.77175758 68.22824242 221.77175758 66 224 C66 151.4 66 78.8 66 4 C46.2 4 26.4 4 6 4 C4.02 3.01 2.04 2.02 0 1 C0 0.67 0 0.34 0 0 Z " fill="#F0E0C3" transform="translate(510,298)"/>
<path d="M0 0 C19.14 0 38.28 0 58 0 C58.09022488 28.8761257 58.1639381 57.75213763 58.20724869 86.62836838 C58.21135475 89.29521443 58.21549347 91.9620604 58.21972656 94.62890625 C58.2207758 95.29177349 58.22182505 95.95464073 58.22290608 96.63759485 C58.24031942 107.37583845 58.27186218 118.11399655 58.30861118 128.85218939 C58.34599486 139.86756529 58.3679309 150.88289391 58.37635398 161.89832997 C58.38157762 168.08683366 58.39389045 174.27514329 58.42292023 180.4635849 C58.45000606 186.28461206 58.45845877 192.10536464 58.45243073 197.92644882 C58.45353402 200.06625992 58.46152829 202.20607991 58.4768219 204.34583664 C58.49664267 207.26123291 58.49196795 210.17558437 58.48101807 213.09100342 C58.49266943 213.94314257 58.5043208 214.79528173 58.51632524 215.67324328 C58.47770531 219.4618121 58.366528 221.53836752 55.96993637 224.55681229 C55.31985737 225.03306423 54.66977837 225.50931618 54 226 C54 224.68 54 223.36 54 222 C54.66 222 55.32 222 56 222 C56 149.4 56 76.8 56 2 C37.52 2 19.04 2 0 2 C0 1.34 0 0.68 0 0 Z " fill="#F37A16" transform="translate(518,302)"/>
<path d="M0 0 C0.5625 1.9375 0.5625 1.9375 1 4 C0.67 4.33 0.34 4.66 0 5 C-0.10186993 6.52717619 -0.13398049 8.05905297 -0.1386652 9.58961582 C-0.14413964 10.58785801 -0.14961409 11.58610019 -0.15525442 12.61459213 C-0.15623253 13.72449051 -0.15721064 14.83438888 -0.15821838 15.97792053 C-0.16315636 17.14667093 -0.16809434 18.31542133 -0.17318195 19.51958841 C-0.18593901 22.77818106 -0.19419623 26.03675047 -0.20060861 29.29536068 C-0.20859004 32.80390924 -0.22229552 36.31243583 -0.23532104 39.82096863 C-0.25711595 45.90456011 -0.27524936 51.98815379 -0.29092598 58.07176399 C-0.31359724 66.86774265 -0.34174381 75.66369701 -0.37124526 84.4596551 C-0.4189549 98.72903344 -0.46220991 112.9984217 -0.50268555 127.26782227 C-0.54202334 141.13273897 -0.58344542 154.99764686 -0.62768555 168.86254883 C-0.63177196 170.14357585 -0.63177196 170.14357585 -0.63594092 171.4504822 C-0.64962011 175.73465605 -0.66334044 180.01882977 -0.67708123 184.30300343 C-0.79109896 219.86865069 -0.89789656 255.43431662 -1 291 C-1.33 291 -1.66 291 -2 291 C-2.04574476 254.36157354 -2.08100258 217.72315137 -2.10213066 181.08470215 C-2.10463217 176.76244136 -2.10722081 172.44018063 -2.10986328 168.11791992 C-2.1103879 167.2574098 -2.11091252 166.39689968 -2.11145304 165.51031349 C-2.12016349 151.56403389 -2.13593698 137.61777072 -2.15430559 123.67150088 C-2.17298685 109.36892047 -2.18411296 95.06634869 -2.18817699 80.76375657 C-2.19092574 71.93323828 -2.1996177 63.10276643 -2.21583293 54.27226243 C-2.22637794 48.22270451 -2.22960628 42.17317071 -2.22700275 36.12360426 C-2.22571758 32.62961597 -2.22773318 29.13570902 -2.23841095 25.64173508 C-2.24829401 21.85920983 -2.24599319 18.07688678 -2.24050903 14.2943573 C-2.24633472 13.18250271 -2.2521604 12.07064813 -2.25816262 10.92510098 C-2.25418052 9.91590991 -2.25019842 8.90671884 -2.24609566 7.86694622 C-2.2468551 6.99320974 -2.24761454 6.11947326 -2.24839699 5.21925992 C-2 3 -2 3 0 0 Z " fill="#C57832" transform="translate(343,232)"/>
<path d="M0 0 C28.05 0 56.1 0 85 0 C85 4.95 85 9.9 85 15 C74.44 15 63.88 15 53 15 C53 14.67 53 14.34 53 14 C62.9 14 72.8 14 83 14 C83 10.04 83 6.08 83 2 C56.27 2.33 29.54 2.66 2 3 C1.67 6.63 1.34 10.26 1 14 C11.56 14 22.12 14 33 14 C33 14.33 33 14.66 33 15 C22.11 15 11.22 15 0 15 C0 10.05 0 5.1 0 0 Z " fill="#0A172A" transform="translate(157,692)"/>
<path d="M0 0 C1.12120157 0.9550972 2.24156401 1.91117951 3.36157227 2.86767578 C3.98556412 3.3999881 4.60955597 3.93230042 5.25245667 4.48074341 C7.23224136 6.20190298 9.10154154 8.001573 10.9375 9.875 C11.52402344 10.47054687 12.11054687 11.06609375 12.71484375 11.6796875 C13.13894531 12.11539063 13.56304688 12.55109375 14 13 C12.68 13.33 11.36 13.66 10 14 C10 13.34 10 12.68 10 12 C9.34 12 8.68 12 8 12 C8 11.34 8 10.68 8 10 C7.34 10 6.68 10 6 10 C6 9.34 6 8.68 6 8 C5.34 8 4.68 8 4 8 C4 7.34 4 6.68 4 6 C3.34 6 2.68 6 2 6 C2 22.5 2 39 2 56 C2.66 56 3.32 56 4 56 C3.67 57.32 3.34 58.64 3 60 C0.10527106 56.76931654 -0.36962565 54.70459674 -0.34057617 50.40527344 C-0.34034958 49.28441345 -0.34012299 48.16355347 -0.33988953 47.00872803 C-0.32440567 45.80444153 -0.30892181 44.60015503 -0.29296875 43.359375 C-0.28872391 42.12205627 -0.28447906 40.88473755 -0.28010559 39.60992432 C-0.26616254 36.32837459 -0.23923086 33.04726944 -0.20599365 29.76586914 C-0.17524594 26.41426693 -0.16184603 23.06264561 -0.14648438 19.7109375 C-0.11339996 13.14045123 -0.06318845 6.57026198 0 0 Z " fill="#EF7C1F" transform="translate(512,228)"/>
<path d="M0 0 C2 2 2 2 2.1953125 5.4765625 C2.18387695 6.85952633 2.15791258 8.24238057 2.125 9.625 C2.08375 12.05875 2.0425 14.4925 2 17 C8.93 17 15.86 17 23 17 C23 21.62 23 26.24 23 31 C16.07 31 9.14 31 2 31 C2 30.67 2 30.34 2 30 C8.6 30 15.2 30 22 30 C22 26.04 22 22.08 22 18 C19.08302989 18.14104691 16.1665198 18.28764814 13.25 18.4375 C12.425 18.47681641 11.6 18.51613281 10.75 18.55664062 C9.95078125 18.59853516 9.1515625 18.64042969 8.328125 18.68359375 C7.22839355 18.73858032 7.22839355 18.73858032 6.10644531 18.79467773 C3.65826332 18.98111465 3.65826332 18.98111465 0 20 C0 13.4 0 6.8 0 0 Z " fill="#0C172A" transform="translate(596,700)"/>
<path d="M0 0 C6.41069287 5.27101414 12.18590512 11.09128152 18 17 C16.68 17.33 15.36 17.66 14 18 C14 17.34 14 16.68 14 16 C13.34 16 12.68 16 12 16 C12 15.34 12 14.68 12 14 C11.34 14 10.68 14 10 14 C10 13.34 10 12.68 10 12 C9.34 12 8.68 12 8 12 C8 11.34 8 10.68 8 10 C7.34 10 6.68 10 6 10 C6 9.34 6 8.68 6 8 C5.34 8 4.68 8 4 8 C4 7.34 4 6.68 4 6 C3.34 6 2.68 6 2 6 C2 5.34 2 4.68 2 4 C1.34 4 0.68 4 0 4 C0 2.68 0 1.36 0 0 Z " fill="#E98530" transform="translate(526,242)"/>
<path d="M0 0 C5.94 0 11.88 0 18 0 C18.33 3.3 18.66 6.6 19 10 C20.32 9.01 21.64 8.02 23 7 C23.33 7.99 23.66 8.98 24 10 C21 12 21 12 17 12 C17 8.37 17 4.74 17 1 C11.39 1 5.78 1 0 1 C0 0.67 0 0.34 0 0 Z " fill="#46535F" transform="translate(732,716)"/>
<path d="M0 0 C0.66 0.33 1.32 0.66 2 1 C1.855625 1.66 1.71125 2.32 1.5625 3 C0.97008113 5.81008198 0.97008113 5.81008198 0.88671875 7.9375 C0.84160156 8.618125 0.79648437 9.29875 0.75 10 C0.72421875 10.639375 0.6984375 11.27875 0.671875 11.9375 C-0.35598841 15.09280162 -2.59864001 16.79747873 -5 19 C-4.35561067 16.39546825 -3.7095496 13.7913709 -3.0625 11.1875 C-2.88009766 10.44951172 -2.69769531 9.71152344 -2.50976562 8.95117188 C-1.7577385 5.92939016 -0.98514427 2.95543282 0 0 Z " fill="#253345" transform="translate(648,469)"/>
<path d="M0 0 C0.33 0 0.66 0 1 0 C1.29530838 6.49678438 0.17293889 12.6221448 -1 19 C-1.99 19.33 -2.98 19.66 -4 20 C-3.7155186 17.79072956 -3.4220904 15.58261021 -3.125 13.375 C-2.96257813 12.14523437 -2.80015625 10.91546875 -2.6328125 9.6484375 C-2.04516311 6.26038483 -1.18011878 3.22301349 0 0 Z " fill="#1F2A3E" transform="translate(653,447)"/>
<path d="M0 0 C3.10442031 1.3904499 5.3656443 3.01571598 7.8125 5.375 C8.43769531 5.96023438 9.06289063 6.54546875 9.70703125 7.1484375 C11 9 11 9 10.69921875 11.2265625 C10.46847656 11.81179688 10.23773438 12.39703125 10 13 C8 12 8 12 6.75 9.75 C4.57788352 6.3366741 2.18389085 4.47635955 -1 2 C-0.67 1.34 -0.34 0.68 0 0 Z " fill="#1D2935" transform="translate(466,773)"/>
<path d="M0 0 C1.26328125 0.02707031 2.5265625 0.05414063 3.828125 0.08203125 C4.79234375 0.11683594 5.7565625 0.15164062 6.75 0.1875 C6.75 0.8475 6.75 1.5075 6.75 2.1875 C2.13 2.1875 -2.49 2.1875 -7.25 2.1875 C-7.25 2.8475 -7.25 3.5075 -7.25 4.1875 C-8.57 3.8575 -9.89 3.5275 -11.25 3.1875 C-7.67487951 -0.25219926 -4.83224625 -0.13422906 0 0 Z " fill="#E7771E" transform="translate(355.25,227.8125)"/>
<path d="M0 0 C0.91007812 0.00902344 1.82015625 0.01804687 2.7578125 0.02734375 C3.45648438 0.03894531 4.15515625 0.05054688 4.875 0.0625 C4.875 1.0525 4.875 2.0425 4.875 3.0625 C0.915 3.0625 -3.045 3.0625 -7.125 3.0625 C-7.125 2.4025 -7.125 1.7425 -7.125 1.0625 C-4.60024538 -0.19987731 -2.81299534 -0.03606404 0 0 Z " fill="#232F3D" transform="translate(443.125,727.9375)"/>
<path d="M0 0 C7.48291572 6.15034169 7.48291572 6.15034169 10 10 C8.125 10.625 8.125 10.625 6 11 C5.34 10.34 4.68 9.68 4 9 C4 8.01 4 7.02 4 6 C3.34 6 2.68 6 2 6 C2 5.34 2 4.68 2 4 C1.34 4 0.68 4 0 4 C0 2.68 0 1.36 0 0 Z " fill="#E9802B" transform="translate(558,274)"/>
<path d="M0 0 C7.48291572 6.15034169 7.48291572 6.15034169 10 10 C8.68 10 7.36 10 6 10 C6 9.34 6 8.68 6 8 C5.34 8 4.68 8 4 8 C4 7.34 4 6.68 4 6 C3.34 6 2.68 6 2 6 C2 5.34 2 4.68 2 4 C1.34 4 0.68 4 0 4 C0 2.68 0 1.36 0 0 Z " fill="#E7822F" transform="translate(544,260)"/>
<path d="M0 0 C7.48291572 6.15034169 7.48291572 6.15034169 10 10 C8.68 10 7.36 10 6 10 C6 9.34 6 8.68 6 8 C5.34 8 4.68 8 4 8 C4 7.34 4 6.68 4 6 C3.34 6 2.68 6 2 6 C2 5.34 2 4.68 2 4 C1.34 4 0.68 4 0 4 C0 2.68 0 1.36 0 0 Z " fill="#E98734" transform="translate(516,232)"/>
<path d="M0 0 C1.32 0 2.64 0 4 0 C5.76462683 3.08809695 6 4.23312136 6 8 C2.83884224 6.63016497 2.0072908 6.0109362 0 3 C0 2.01 0 1.02 0 0 Z " fill="#E97A1F" transform="translate(342,522)"/>
<path d="M0 0 C0.55171875 0.26683594 1.1034375 0.53367187 1.671875 0.80859375 C1.341875 1.46859375 1.011875 2.12859375 0.671875 2.80859375 C0.06859375 2.94136719 -0.5346875 3.07414063 -1.15625 3.2109375 C-3.94548236 3.97847806 -5.10517724 5.28432208 -7.078125 7.37109375 C-7.69171875 8.01175781 -8.3053125 8.65242187 -8.9375 9.3125 C-9.39640625 9.80621094 -9.8553125 10.29992187 -10.328125 10.80859375 C-10.988125 10.47859375 -11.648125 10.14859375 -12.328125 9.80859375 C-10.7605732 8.10642395 -9.17352716 6.42218821 -7.578125 4.74609375 C-6.69640625 3.80636719 -5.8146875 2.86664062 -4.90625 1.8984375 C-2.328125 -0.19140625 -2.328125 -0.19140625 0 0 Z " fill="#D3DCE2" transform="translate(287.328125,763.19140625)"/>
<path d="M0 0 C0 3 0 3 -2 6 C-5.4375 7.3125 -5.4375 7.3125 -9 8 C-9.99 7.34 -10.98 6.68 -12 6 C-11.30132813 5.73445312 -10.60265625 5.46890625 -9.8828125 5.1953125 C-8.97273437 4.84210937 -8.06265625 4.48890625 -7.125 4.125 C-6.22007812 3.77695312 -5.31515625 3.42890625 -4.3828125 3.0703125 C-1.87782993 2.11469105 -1.87782993 2.11469105 0 0 Z " fill="#263544" transform="translate(689,774)"/>
<path d="M0 0 C1.32 0.66 2.64 1.32 4 2 C3.0925 2.598125 2.185 3.19625 1.25 3.8125 C-1.22901481 5.48106766 -3.63317911 7.17936855 -6 9 C-6.66 8.67 -7.32 8.34 -8 8 C-5.36 5.36 -2.72 2.72 0 0 Z " fill="#192637" transform="translate(309,717)"/>
<path d="M0 0 C0.63671875 1.83984375 0.63671875 1.83984375 1 4 C-1.67235841 7.13047699 -4.64019009 9.63568932 -8 12 C-7.41463247 8.33939179 -5.916761 6.45464836 -3.4375 3.75 C-2.79683594 3.04359375 -2.15617188 2.3371875 -1.49609375 1.609375 C-0.75552734 0.81273437 -0.75552734 0.81273437 0 0 Z " fill="#202D3F" transform="translate(608,551)"/>
<path d="M0 0 C0.33 0.99 0.66 1.98 1 3 C-1.40436026 6.60654039 -2.94679607 6.85452932 -7 8 C-5.50902342 4.2047869 -3.24299151 2.38957269 0 0 Z " fill="#1B2A3F" transform="translate(579,580)"/>
<path d="M0 0 C2.12038635 2.61514317 4.13091744 5.19637616 6 8 C4.68 8 3.36 8 2 8 C2 7.34 2 6.68 2 6 C1.34 6 0.68 6 0 6 C0 4.02 0 2.04 0 0 Z " fill="#E57F26" transform="translate(502,290)"/>
<path d="M0 0 C0.5625 1.9375 0.5625 1.9375 1 4 C0.67 4.33 0.34 4.66 0 5 C-0.23192865 6.51469448 -0.41215238 8.03754562 -0.5625 9.5625 C-0.64628906 10.38878906 -0.73007812 11.21507812 -0.81640625 12.06640625 C-0.87699219 12.70449219 -0.93757813 13.34257812 -1 14 C-1.33 14 -1.66 14 -2 14 C-2.05410687 12.22950311 -2.09284119 10.45853151 -2.125 8.6875 C-2.14820313 7.70136719 -2.17140625 6.71523437 -2.1953125 5.69921875 C-2 3 -2 3 0 0 Z " fill="#D08339" transform="translate(343,232)"/>
<path d="M0 0 C0.66 1.32 1.32 2.64 2 4 C-0.31 4 -2.62 4 -5 4 C-5 3.34 -5 2.68 -5 2 C-3.35 1.34 -1.7 0.68 0 0 Z " fill="#283542" transform="translate(619,778)"/>
<path d="M0 0 C0.99 0 1.98 0 3 0 C3 1.32 3 2.64 3 4 C3.66 4 4.32 4 5 4 C5.33 5.32 5.66 6.64 6 8 C1.2 4.55384615 1.2 4.55384615 0.1875 1.75 C0.125625 1.1725 0.06375 0.595 0 0 Z " fill="#FBE8CD" transform="translate(503,290)"/>
</svg>
